<svg width="47" height="34" viewBox="0 0 47 34" fill="none" xmlns="http://www.w3.org/2000/svg">
<path d="M38.3335 21.3333C37.7432 21.3333 37.2481 21.1333 36.8481 20.7333C36.4481 20.3333 36.2488 19.8389 36.2502 19.25V15.0833H32.0835C31.4932 15.0833 30.9981 14.8833 30.5981 14.4833C30.1981 14.0833 29.9988 13.5889 30.0002 13C30.0002 12.4097 30.2002 11.9146 30.6002 11.5146C31.0002 11.1146 31.4946 10.9153 32.0835 10.9167H36.2502V6.75C36.2502 6.15972 36.4502 5.66458 36.8502 5.26458C37.2502 4.86458 37.7446 4.66528 38.3335 4.66667C38.9238 4.66667 39.4189 4.86667 39.8189 5.26667C40.2189 5.66667 40.4182 6.16111 40.4169 6.75V10.9167H44.5835C45.1738 10.9167 45.6689 11.1167 46.0689 11.5167C46.4689 11.9167 46.6682 12.4111 46.6669 13C46.6669 13.5903 46.4669 14.0854 46.0669 14.4854C45.6669 14.8854 45.1724 15.0847 44.5835 15.0833H40.4169V19.25C40.4169 19.8403 40.2169 20.3354 39.8169 20.7354C39.4169 21.1354 38.9224 21.3347 38.3335 21.3333ZM17.5002 17.1667C15.2085 17.1667 13.2467 16.3507 11.6148 14.7187C9.98281 13.0868 9.16684 11.125 9.16684 8.83333C9.16684 6.54167 9.98281 4.57986 11.6148 2.94792C13.2467 1.31597 15.2085 0.5 17.5002 0.5C19.7918 0.5 21.7537 1.31597 23.3856 2.94792C25.0175 4.57986 25.8335 6.54167 25.8335 8.83333C25.8335 11.125 25.0175 13.0868 23.3856 14.7187C21.7537 16.3507 19.7918 17.1667 17.5002 17.1667ZM2.91684 33.8333C2.32656 33.8333 1.83142 33.6333 1.43142 33.2333C1.03142 32.8333 0.832114 32.3389 0.833503 31.75V28C0.833503 26.8194 1.13767 25.734 1.746 24.7437C2.35434 23.7535 3.16128 22.9986 4.16684 22.4792C6.31962 21.4028 8.50712 20.5951 10.7293 20.0562C12.9516 19.5174 15.2085 19.2486 17.5002 19.25C19.7918 19.25 22.0488 19.5194 24.271 20.0583C26.4932 20.5972 28.6807 21.4042 30.8335 22.4792C31.8405 23 32.6481 23.7555 33.2564 24.7458C33.8648 25.7361 34.1682 26.8208 34.1669 28V31.75C34.1669 32.3403 33.9669 32.8354 33.5669 33.2354C33.1669 33.6354 32.6724 33.8347 32.0835 33.8333H2.91684ZM5.00017 29.6667H30.0002V28C30.0002 27.618 29.9044 27.2708 29.7127 26.9583C29.521 26.6458 29.2696 26.4028 28.9585 26.2292C27.0835 25.2917 25.1912 24.5889 23.2814 24.1208C21.3717 23.6528 19.4446 23.418 17.5002 23.4167C15.5557 23.4167 13.6286 23.6514 11.7189 24.1208C9.8092 24.5903 7.91684 25.293 6.04184 26.2292C5.72934 26.4028 5.47726 26.6458 5.28559 26.9583C5.09392 27.2708 4.99878 27.618 5.00017 28V29.6667ZM17.5002 13C18.646 13 19.6273 12.5917 20.4439 11.775C21.2606 10.9583 21.6682 9.97778 21.6668 8.83333C21.6668 7.6875 21.2585 6.70625 20.4418 5.88958C19.6252 5.07292 18.6446 4.66528 17.5002 4.66667C16.3543 4.66667 15.3731 5.075 14.5564 5.89166C13.7398 6.70833 13.3321 7.68889 13.3335 8.83333C13.3335 9.97916 13.7418 10.9604 14.5585 11.7771C15.3752 12.5937 16.3557 13.0014 17.5002 13Z" fill="black"/>
</svg>
