<svg width="21" height="21" viewBox="0 0 21 21" fill="none" xmlns="http://www.w3.org/2000/svg">
<path d="M10.4998 11.6666L12.9165 14.0833C13.0693 14.2361 13.2637 14.3125 13.4998 14.3125C13.7359 14.3125 13.9304 14.2361 14.0832 14.0833C14.2359 13.9305 14.3123 13.7361 14.3123 13.5C14.3123 13.2638 14.2359 13.0694 14.0832 12.9166L11.6665 10.5L14.0832 8.08329C14.2359 7.93051 14.3123 7.73607 14.3123 7.49996C14.3123 7.26385 14.2359 7.0694 14.0832 6.91662C13.9304 6.76385 13.7359 6.68746 13.4998 6.68746C13.2637 6.68746 13.0693 6.76385 12.9165 6.91662L10.4998 9.33329L8.08317 6.91662C7.93039 6.76385 7.73595 6.68746 7.49984 6.68746C7.26372 6.68746 7.06928 6.76385 6.9165 6.91662C6.76372 7.0694 6.68734 7.26385 6.68734 7.49996C6.68734 7.73607 6.76372 7.93051 6.9165 8.08329L9.33317 10.5L6.9165 12.9166C6.76372 13.0694 6.68734 13.2638 6.68734 13.5C6.68734 13.7361 6.76372 13.9305 6.9165 14.0833C7.06928 14.2361 7.26372 14.3125 7.49984 14.3125C7.73595 14.3125 7.93039 14.2361 8.08317 14.0833L10.4998 11.6666ZM10.4998 18.8333C9.34706 18.8333 8.26372 18.6144 7.24984 18.1766C6.23595 17.7388 5.354 17.1452 4.604 16.3958C3.854 15.6458 3.26039 14.7638 2.82317 13.75C2.38595 12.7361 2.16706 11.6527 2.1665 10.5C2.1665 9.34718 2.38539 8.26385 2.82317 7.24996C3.26095 6.23607 3.85456 5.35412 4.604 4.60413C5.354 3.85413 6.23595 3.26051 7.24984 2.82329C8.26372 2.38607 9.34706 2.16718 10.4998 2.16663C11.6526 2.16663 12.7359 2.38551 13.7498 2.82329C14.7637 3.26107 15.6457 3.85468 16.3957 4.60413C17.1457 5.35412 17.7396 6.23607 18.1773 7.24996C18.6151 8.26385 18.8337 9.34718 18.8332 10.5C18.8332 11.6527 18.6143 12.7361 18.1765 13.75C17.7387 14.7638 17.1451 15.6458 16.3957 16.3958C15.6457 17.1458 14.7637 17.7397 13.7498 18.1775C12.7359 18.6152 11.6526 18.8338 10.4998 18.8333ZM10.4998 17.1666C12.3609 17.1666 13.9373 16.5208 15.229 15.2291C16.5207 13.9375 17.1665 12.3611 17.1665 10.5C17.1665 8.63885 16.5207 7.06246 15.229 5.77079C13.9373 4.47913 12.3609 3.83329 10.4998 3.83329C8.63872 3.83329 7.06234 4.47913 5.77067 5.77079C4.479 7.06246 3.83317 8.63885 3.83317 10.5C3.83317 12.3611 4.479 13.9375 5.77067 15.2291C7.06234 16.5208 8.63872 17.1666 10.4998 17.1666Z" fill="white"/>
</svg>
